PathFileType	4	(X/Y/Z)	Patient4_TMGait_0pt2_01_left_21.trc.trc
DataRate	CameraRate	NumFrames	NumMarkers	Units	OrigDataRate	OrigDataStartFrame	OrigNumFrames
45.751633986928	45.751633986928	6	33	mm	45.751633986928	71	       141
Frame#	Time	Sacral			L.Shoulder			Chest			R.Shoulder			Neck			R.ASIS			L.ASIS			R.Thigh.Superior			R.Thigh.Lateral			R.Thigh.Inferior			R.Patella			L.Thigh.Superior			L.Thigh.Lateral			L.Thigh.Inferior			L.Patella			L.Shank.Superior			L.Shank.Lateral			L.Shank.Inferior			R.Shank.Superior			R.Shank.Lateral			R.Shank.Inferior			R.Heel			R.Midfoot.Superior			R.Midfoot.Lateral			R.Toe			L.Heel			L.Midfoot.Lateral			L.Midfoot.Superior			L.Toe			L.Elbow			L.Wrist			R.Elbow			R.Wrist			
		X1	Y1	Z1	X2	Y2	Z2	X3	Y3	Z3	X4	Y4	Z4	X5	Y5	Z5	X6	Y6	Z6	X7	Y7	Z7	X8	Y8	Z8	X9	Y9	Z9	X10	Y10	Z10	X11	Y11	Z11	X12	Y12	Z12	X13	Y13	Z13	X14	Y14	Z14	X15	Y15	Z15	X16	Y16	Z16	X17	Y17	Z17	X18	Y18	Z18	X19	Y19	Z19	X20	Y20	Z20	X21	Y21	Z21	X22	Y22	Z22	X23	Y23	Z23	X24	Y24	Z24	X25	Y25	Z25	X26	Y26	Z26	X27	Y27	Z27	X28	Y28	Z28	X29	Y29	Z29	X30	Y30	Z30	X31	Y31	Z31	X32	Y32	Z32	X33	Y33	Z33	

71	49.820000000000	739.192226280276	999.163444938589	397.131377126913	942.090352361304	1438.488263773694	265.621931225458	1001.785687270999	1368.416948509607	445.512039014657	876.683293776902	1434.690076289075	595.721356094443	885.057669690511	1495.729747071888	417.952966765457	946.026590483159	944.835198137427	558.017182042576	980.831943605286	964.334865731049	284.648059528671	1026.637657212994	767.973564437283	535.302736950146	973.839508708830	646.956788710832	603.469939448939	1064.666237794966	607.118324352217	528.937176553852	1093.002186842243	522.351055427064	546.467653354086	1006.729599433196	740.161141528305	326.707140896972	918.936464608256	623.750697360662	256.471841392914	980.528276759920	546.315342377293	337.415995601575	971.831315540775	478.308660799780	349.678749911209	940.534215061301	406.385206595093	340.019764400300	849.982423064815	296.428306780563	282.269807094036	877.538687094009	186.691623424285	366.319960755102	1071.731386822588	432.425859665721	560.838318406299	1010.867507613304	326.936130153094	632.607703916052	1071.153047871763	232.255968577393	584.070048364114	961.819149976184	49.384040201828	570.576188780505	1130.803472992572	118.348294275116	602.922938603199	1050.362062663913	45.675017911154	640.335565180556	1254.326538151217	76.457626705161	620.722835031587	734.759454445959	37.781500672140	399.011494647379	814.325873801892	35.234928907256	323.723337807685	896.239224417283	95.674196124962	357.170726093482	1025.951483999149	43.426672158270	337.813274513933	1104.044099878441	1161.161728630040	106.491668988116	1362.111919950901	1129.036674451252	136.928755870279	705.996027674641	1128.700687212180	665.577020716255	670.329047738175	869.218874609775	661.445837761260	
72	49.841857142857	741.004297260400	998.953548953866	398.760087736780	944.460187497386	1437.897649288699	268.239492616036	1003.136375346328	1368.143806372376	448.575405586994	877.247499045495	1434.860748571987	597.922985576497	886.606712352268	1495.403220680130	420.220988993950	946.754614691944	943.985084121233	560.846544887789	983.180670271879	964.058588130647	287.624236623305	1025.618116655785	765.442201110529	539.273491630517	969.883598641803	644.669157382343	606.043856339184	1061.273756287237	604.513444906146	532.556200863773	1087.625715771796	520.790479487737	548.816091460711	1006.189201179086	739.189640884973	328.976718639148	916.959057371178	624.097687842224	257.426980226810	976.901402472253	545.607350866401	338.213654807753	967.200979694476	477.916464031266	350.197577340045	936.273643490276	406.363524864007	340.311520517717	845.647865733586	296.527217074685	282.378857830562	873.111695789220	186.667758962609	366.348754034569	1068.778686579555	430.638388388017	562.955228246764	1010.511025510455	323.858397208746	634.852074919414	1072.260217639449	230.595834975385	585.541014417465	965.974704599439	47.024192950845	572.536511067616	1134.364038799073	117.182098151513	603.286091909074	1055.203776989381	43.897737607796	641.413494021155	1258.318150884674	76.349916342338	619.562174327102	730.321137775253	37.719535872415	398.990947323837	809.891796261372	35.163592690608	323.709058265044	891.820259109379	95.628389058471	357.148677499015	1021.525683095613	43.384335080563	337.837879100535	1109.373190389145	1163.510316990207	108.820167877254	1368.154646140303	1139.555533048988	138.970735593806	706.589943850457	1129.145453477851	666.730909202749	671.267559719213	869.486582142580	661.766696914276	
73	49.863714285714	743.131215329064	998.609511030601	400.875847942559	946.770352439717	1437.155939466395	271.135327565034	1004.748234110875	1367.753503611096	451.834494639817	878.270928404549	1434.823434109373	600.515511683068	888.287129308673	1494.925885607046	422.844284438070	947.993889132273	942.922246460383	563.879016239672	985.763149847402	963.676297017612	290.827902402088	1025.187076297720	762.723692075104	542.991220146527	966.648541594001	642.268351067568	608.276510450256	1058.440225816951	601.863427959814	535.602122054847	1082.646145891530	518.846077849832	550.722298602235	1006.039939875777	738.110740019262	331.334809952847	915.267547502742	624.372836581371	258.645171889617	973.672820334860	544.829242172312	339.174028957522	963.026187262015	477.426068896746	350.875865570350	932.348462919041	406.266577418828	340.769593844113	841.496640967243	296.679200477247	282.627573488570	868.793915047760	186.600795112642	366.415972683610	1065.678118578256	428.478472013539	564.649407388559	1009.116754613700	320.879522243663	636.372695172791	1071.739492667549	228.683276482483	586.375430617997	967.205236569383	45.378045574936	573.559359281658	1135.357827217917	115.593161579823	602.921989638518	1056.910975525808	42.392980262529	641.705666438936	1259.405125602210	75.040489119591	618.052035300730	725.885626476352	37.654992934039	398.974311235566	805.462698745513	35.089289995746	323.701746288359	887.409414674744	95.574235160660	357.132229706303	1017.108636954413	43.306228639149	337.855724039012	1114.221401256998	1165.326252567842	111.475121497561	1373.436136580642	1148.725424370970	141.115854404922	708.532943538579	1128.747193591519	668.537619827546	674.112929808114	868.825746203785	662.728543951021	
74	49.885571428571	745.553679724293	998.211540707918	403.468996082297	949.060011165942	1436.340323760401	274.305225558397	1006.644141743643	1367.301658611048	455.285606280027	879.776863893688	1434.635257082029	603.503631288521	890.124226920226	1494.361494077699	425.818602755189	949.752136369083	941.753310617294	567.105616132816	988.554853720097	963.226056826978	294.241559926975	1025.363333725913	759.926251799597	546.423122061517	964.211984115433	639.888002334110	610.233988669121	1056.182228763907	599.255583489525	538.090443034215	1078.180875767695	516.654623772060	552.239778564495	1006.260079568439	736.942159447655	333.773804776234	913.836958147489	624.589482298329	260.146300879009	970.844472686913	543.999189897927	340.312415707215	959.311983169591	476.852005196359	351.735838393030	928.754788002369	406.109968839172	341.415673213012	837.520765238685	296.908923463150	283.037417217884	864.586526806346	186.506840209989	366.530694113889	1062.600510855765	426.081460245653	565.972331593049	1006.985135752220	318.005518297312	637.299769982599	1069.977857849443	226.542140319192	586.668101223032	966.036674682068	44.228702558488	573.836888118559	1134.295908051782	113.616883015563	601.940571399552	1056.062823757076	41.061132674471	641.378141686741	1258.214190272875	72.721340645890	616.282930181271	721.457864599195	37.602863101288	398.960130378255	801.042313839113	35.022956976098	323.706639950449	883.011408435172	95.516722992185	357.124458093905	1012.702343794144	43.187113578613	337.866029521753	1118.576060832941	1166.619761369188	114.443527155498	1378.025059886564	1156.567682123327	143.367793911350	711.608986793352	1127.711497611666	671.014247085972	678.509735239648	867.480279626959	664.410314641831	
75	49.907428571429	748.234630482800	997.841016209097	406.522625798825	951.371703740373	1435.531165211332	277.733248022358	1008.836786246563	1366.846183615585	458.914777066857	881.772838099387	1434.364561068036	606.870764911290	892.142659747850	1493.780310754244	429.123681628995	952.012254576213	940.599138914406	570.521358348431	991.510417151255	962.747852781084	297.845060997696	1026.140221520492	757.187829210251	549.580027681007	962.630205118490	637.667410082117	612.018244845136	1054.516852410728	596.790491699841	540.092604154096	1074.348382723781	514.373497848207	553.448372694243	1006.801152909761	735.713726007827	336.295482605237	912.631384692193	624.767997777736	261.944907908698	968.403948588066	543.144771575705	341.644221351252	956.048582364502	476.217524337275	352.796686120835	925.481386108585	405.917615827967	342.265111204411	833.706412199465	297.245253905752	283.627071723684	860.491397888897	186.410645079571	366.701335020997	1059.723937771124	423.609890756391	566.999828704559	1004.461316223861	315.293441857655	637.805752239263	1067.387520090984	224.264507357818	586.546410264546	963.064112747310	43.430415312518	573.590614972795	1131.717784671981	111.374540240608	600.510678361756	1053.295819734912	39.879944382545	640.637025064539	1255.378529314906	69.686777390185	614.389415950313	717.043776641890	37.587597601010	398.948032432191	796.635619540383	34.981528053441	323.729907049820	878.634527290677	95.464379555074	357.128006737858	1008.308795120445	43.022578897943	337.868394330966	1122.432413743393	1167.411752065596	117.705612371667	1381.984352196189	1163.103444711747	145.729015932045	715.611278537892	1126.258966601479	674.158401209212	684.123421377849	865.704054609803	666.877317060431	
76	49.929285714286	751.123473717933	997.572349025117	410.017503150927	953.742511008733	1434.804105820402	281.390021347899	1011.325378154906	1366.443266769294	462.695712724496	884.248702858189	1434.086129688039	610.577241852848	894.361014010562	1493.252804565049	432.723065097314	954.734513489586	939.581826708041	574.123642691841	994.565716764402	962.281469698174	301.615513165546	1027.484861075290	754.660615974821	552.509883514276	961.928198301299	635.733509762336	613.748318304546	1053.458301601590	594.569753147787	541.723939963684	1071.251897017811	512.160656957362	554.442861146469	1007.591694266965	734.466929805556	338.906519176842	911.605920384482	624.936191105780	264.045859751436	966.326276588559	542.302068122410	343.178712266939	953.213837475260	475.554007143959	354.067668413842	922.510496820805	405.720845401558	343.322301200299	830.035570720806	297.719666991348	284.408492038003	856.511368075553	186.344513396626	366.933053410315	1057.210335088651	421.228685401376	567.820091802385	1001.887242550757	312.830747276308	638.080966941068	1064.355268128589	221.981324118963	586.151524694147	958.878384154111	42.890447108817	573.038400720639	1128.132138592200	109.034421865514	598.836178538517	1049.230360444725	38.870457239770	639.696217080370	1251.478028746888	66.276382713597	612.529329581224	712.650385009652	37.644228493865	398.938535410425	792.248864095191	34.988162701479	323.777588661654	874.291080691434	95.429220577529	357.144020661272	1003.930194124030	42.808849814866	337.862567709997	1125.793698117727	1167.733572426150	121.235379497241	1385.371289139983	1168.350587878552	148.202013776568	720.345754246498	1124.609523844024	677.947945960210	690.647908710904	863.742518192973	670.173662635137	
